<svg class="imgqrstyle" width="100%" height="100%" viewBox="-5.8 -5.8 40.6 40.6" fill="white"
     xmlns="http://www.w3.org/2000/svg" xmlns:xlink="http://www.w3.org/1999/xlink">
    <rect width="1" height="1" fill="#000" x="0" y="0"></rect>
    <rect width="1" height="1" fill="#000" x="0" y="1"></rect>
    <rect width="1" height="1" fill="#000" x="0" y="2"></rect>
    <rect width="1" height="1" fill="#000" x="0" y="3"></rect>
    <rect width="1" height="1" fill="#000" x="0" y="4"></rect>
    <rect width="1" height="1" fill="#000" x="0" y="5"></rect>
    <rect width="1" height="1" fill="#000" x="0" y="6"></rect>
    <rect opacity="1" width="1" height="1" fill="#000" x="0" y="9"></rect>
    <rect opacity="1" width="1" height="1" fill="#000" x="0" y="12"></rect>
    <rect opacity="1" width="1" height="1" fill="#000" x="0" y="14"></rect>
    <rect opacity="1" width="1" height="1" fill="#000" x="0" y="15"></rect>
    <rect opacity="1" width="1" height="1" fill="#000" x="0" y="16"></rect>
    <rect opacity="1" width="1" height="1" fill="#000" x="0" y="18"></rect>
    <rect opacity="1" width="1" height="1" fill="#000" x="0" y="19"></rect>
    <rect width="1" height="1" fill="#000" x="0" y="22"></rect>
    <rect width="1" height="1" fill="#000" x="0" y="23"></rect>
    <rect width="1" height="1" fill="#000" x="0" y="24"></rect>
    <rect width="1" height="1" fill="#000" x="0" y="25"></rect>
    <rect width="1" height="1" fill="#000" x="0" y="26"></rect>
    <rect width="1" height="1" fill="#000" x="0" y="27"></rect>
    <rect width="1" height="1" fill="#000" x="0" y="28"></rect>
    <rect width="1" height="1" fill="#000" x="1" y="0"></rect>
    <rect width="1" height="1" fill="#000" x="1" y="6"></rect>
    <rect opacity="1" width="1" height="1" fill="#000" x="1" y="12"></rect>
    <rect opacity="1" width="1" height="1" fill="#000" x="1" y="13"></rect>
    <rect opacity="1" width="1" height="1" fill="#000" x="1" y="14"></rect>
    <rect opacity="1" width="1" height="1" fill="#000" x="1" y="16"></rect>
    <rect opacity="1" width="1" height="1" fill="#000" x="1" y="18"></rect>
    <rect opacity="1" width="1" height="1" fill="#000" x="1" y="20"></rect>
    <rect width="1" height="1" fill="#000" x="1" y="22"></rect>
    <rect width="1" height="1" fill="#000" x="1" y="28"></rect>
    <rect width="1" height="1" fill="#000" x="2" y="0"></rect>
    <rect width="1" height="1" fill="#000" x="2" y="2"></rect>
    <rect width="1" height="1" fill="#000" x="2" y="3"></rect>
    <rect width="1" height="1" fill="#000" x="2" y="4"></rect>
    <rect width="1" height="1" fill="#000" x="2" y="6"></rect>
    <rect opacity="1" width="1" height="1" fill="#000" x="2" y="8"></rect>
    <rect opacity="1" width="1" height="1" fill="#000" x="2" y="9"></rect>
    <rect opacity="1" width="1" height="1" fill="#000" x="2" y="10"></rect>
    <rect opacity="1" width="1" height="1" fill="#000" x="2" y="12"></rect>
    <rect opacity="1" width="1" height="1" fill="#000" x="2" y="15"></rect>
    <rect opacity="1" width="1" height="1" fill="#000" x="2" y="18"></rect>
    <rect opacity="1" width="1" height="1" fill="#000" x="2" y="20"></rect>
    <rect width="1" height="1" fill="#000" x="2" y="22"></rect>
    <rect width="1" height="1" fill="#000" x="2" y="24"></rect>
    <rect width="1" height="1" fill="#000" x="2" y="25"></rect>
    <rect width="1" height="1" fill="#000" x="2" y="26"></rect>
    <rect width="1" height="1" fill="#000" x="2" y="28"></rect>
    <rect width="1" height="1" fill="#000" x="3" y="0"></rect>
    <rect width="1" height="1" fill="#000" x="3" y="2"></rect>
    <rect width="1" height="1" fill="#000" x="3" y="3"></rect>
    <rect width="1" height="1" fill="#000" x="3" y="4"></rect>
    <rect width="1" height="1" fill="#000" x="3" y="6"></rect>
    <rect opacity="1" width="1" height="1" fill="#000" x="3" y="8"></rect>
    <rect opacity="1" width="1" height="1" fill="#000" x="3" y="10"></rect>
    <rect opacity="1" width="1" height="1" fill="#000" x="3" y="11"></rect>
    <rect opacity="1" width="1" height="1" fill="#000" x="3" y="12"></rect>
    <rect opacity="1" width="1" height="1" fill="#000" x="3" y="15"></rect>
    <rect opacity="1" width="1" height="1" fill="#000" x="3" y="16"></rect>
    <rect opacity="1" width="1" height="1" fill="#000" x="3" y="17"></rect>
    <rect opacity="1" width="1" height="1" fill="#000" x="3" y="18"></rect>
    <rect opacity="1" width="1" height="1" fill="#000" x="3" y="19"></rect>
    <rect width="1" height="1" fill="#000" x="3" y="22"></rect>
    <rect width="1" height="1" fill="#000" x="3" y="24"></rect>
    <rect width="1" height="1" fill="#000" x="3" y="25"></rect>
    <rect width="1" height="1" fill="#000" x="3" y="26"></rect>
    <rect width="1" height="1" fill="#000" x="3" y="28"></rect>
    <rect width="1" height="1" fill="#000" x="4" y="0"></rect>
    <rect width="1" height="1" fill="#000" x="4" y="2"></rect>
    <rect width="1" height="1" fill="#000" x="4" y="3"></rect>
    <rect width="1" height="1" fill="#000" x="4" y="4"></rect>
    <rect width="1" height="1" fill="#000" x="4" y="6"></rect>
    <rect opacity="1" width="1" height="1" fill="#000" x="4" y="9"></rect>
    <rect opacity="1" width="1" height="1" fill="#000" x="4" y="10"></rect>
    <rect opacity="1" width="1" height="1" fill="#000" x="4" y="11"></rect>
    <rect opacity="1" width="1" height="1" fill="#000" x="4" y="12"></rect>
    <rect opacity="1" width="1" height="1" fill="#000" x="4" y="13"></rect>
    <rect opacity="1" width="1" height="1" fill="#000" x="4" y="14"></rect>
    <rect opacity="1" width="1" height="1" fill="#000" x="4" y="16"></rect>
    <rect opacity="1" width="1" height="1" fill="#000" x="4" y="17"></rect>
    <rect opacity="1" width="1" height="1" fill="#000" x="4" y="19"></rect>
    <rect opacity="1" width="1" height="1" fill="#000" x="4" y="20"></rect>
    <rect width="1" height="1" fill="#000" x="4" y="22"></rect>
    <rect width="1" height="1" fill="#000" x="4" y="24"></rect>
    <rect width="1" height="1" fill="#000" x="4" y="25"></rect>
    <rect width="1" height="1" fill="#000" x="4" y="26"></rect>
    <rect width="1" height="1" fill="#000" x="4" y="28"></rect>
    <rect width="1" height="1" fill="#000" x="5" y="0"></rect>
    <rect width="1" height="1" fill="#000" x="5" y="6"></rect>
    <rect opacity="1" width="1" height="1" fill="#000" x="5" y="9"></rect>
    <rect opacity="1" width="1" height="1" fill="#000" x="5" y="10"></rect>
    <rect opacity="1" width="1" height="1" fill="#000" x="5" y="11"></rect>
    <rect opacity="1" width="1" height="1" fill="#000" x="5" y="14"></rect>
    <rect opacity="1" width="1" height="1" fill="#000" x="5" y="16"></rect>
    <rect opacity="1" width="1" height="1" fill="#000" x="5" y="17"></rect>
    <rect opacity="1" width="1" height="1" fill="#000" x="5" y="18"></rect>
    <rect width="1" height="1" fill="#000" x="5" y="22"></rect>
    <rect width="1" height="1" fill="#000" x="5" y="28"></rect>
    <rect width="1" height="1" fill="#000" x="6" y="0"></rect>
    <rect width="1" height="1" fill="#000" x="6" y="1"></rect>
    <rect width="1" height="1" fill="#000" x="6" y="2"></rect>
    <rect width="1" height="1" fill="#000" x="6" y="3"></rect>
    <rect width="1" height="1" fill="#000" x="6" y="4"></rect>
    <rect width="1" height="1" fill="#000" x="6" y="5"></rect>
    <rect width="1" height="1" fill="#000" x="6" y="6"></rect>
    <rect opacity="1" width="1" height="1" fill="#000" x="6" y="8"></rect>
    <rect opacity="1" width="1" height="1" fill="#000" x="6" y="10"></rect>
    <rect opacity="1" width="1" height="1" fill="#000" x="6" y="12"></rect>
    <rect opacity="1" width="1" height="1" fill="#000" x="6" y="14"></rect>
    <rect opacity="1" width="1" height="1" fill="#000" x="6" y="16"></rect>
    <rect opacity="1" width="1" height="1" fill="#000" x="6" y="18"></rect>
    <rect opacity="1" width="1" height="1" fill="#000" x="6" y="20"></rect>
    <rect width="1" height="1" fill="#000" x="6" y="22"></rect>
    <rect width="1" height="1" fill="#000" x="6" y="23"></rect>
    <rect width="1" height="1" fill="#000" x="6" y="24"></rect>
    <rect width="1" height="1" fill="#000" x="6" y="25"></rect>
    <rect width="1" height="1" fill="#000" x="6" y="26"></rect>
    <rect width="1" height="1" fill="#000" x="6" y="27"></rect>
    <rect width="1" height="1" fill="#000" x="6" y="28"></rect>
    <rect opacity="1" width="1" height="1" fill="#000" x="7" y="10"></rect>
    <rect opacity="1" width="1" height="1" fill="#000" x="7" y="13"></rect>
    <rect opacity="1" width="1" height="1" fill="#000" x="7" y="14"></rect>
    <rect opacity="1" width="1" height="1" fill="#000" x="7" y="15"></rect>
    <rect opacity="1" width="1" height="1" fill="#000" x="7" y="16"></rect>
    <rect opacity="1" width="1" height="1" fill="#000" x="8" y="3"></rect>
    <rect opacity="1" width="1" height="1" fill="#000" x="8" y="4"></rect>
    <rect opacity="1" width="1" height="1" fill="#000" x="8" y="6"></rect>
    <rect opacity="1" width="1" height="1" fill="#000" x="8" y="7"></rect>
    <rect opacity="1" width="1" height="1" fill="#000" x="8" y="11"></rect>
    <rect opacity="1" width="1" height="1" fill="#000" x="8" y="14"></rect>
    <rect opacity="1" width="1" height="1" fill="#000" x="8" y="18"></rect>
    <rect opacity="1" width="1" height="1" fill="#000" x="8" y="19"></rect>
    <rect opacity="1" width="1" height="1" fill="#000" x="8" y="20"></rect>
    <rect opacity="1" width="1" height="1" fill="#000" x="8" y="25"></rect>
    <rect opacity="1" width="1" height="1" fill="#000" x="8" y="26"></rect>
    <rect opacity="1" width="1" height="1" fill="#000" x="9" y="0"></rect>
    <rect opacity="1" width="1" height="1" fill="#000" x="9" y="1"></rect>
    <rect opacity="1" width="1" height="1" fill="#000" x="9" y="4"></rect>
    <rect opacity="1" width="1" height="1" fill="#000" x="9" y="7"></rect>
    <rect opacity="1" width="1" height="1" fill="#000" x="9" y="9"></rect>
    <rect opacity="1" width="1" height="1" fill="#000" x="9" y="12"></rect>
    <rect opacity="1" width="1" height="1" fill="#000" x="9" y="16"></rect>
    <rect opacity="1" width="1" height="1" fill="#000" x="9" y="20"></rect>
    <rect opacity="1" width="1" height="1" fill="#000" x="9" y="21"></rect>
    <rect opacity="1" width="1" height="1" fill="#000" x="9" y="22"></rect>
    <rect opacity="1" width="1" height="1" fill="#000" x="9" y="24"></rect>
    <rect opacity="1" width="1" height="1" fill="#000" x="10" y="3"></rect>
    <rect opacity="1" width="1" height="1" fill="#000" x="10" y="5"></rect>
    <rect opacity="1" width="1" height="1" fill="#000" x="10" y="6"></rect>
    <rect opacity="1" width="1" height="1" fill="#000" x="10" y="8"></rect>
    <rect opacity="1" width="1" height="1" fill="#000" x="10" y="9"></rect>
    <rect opacity="1" width="1" height="1" fill="#000" x="10" y="10"></rect>
    <rect opacity="1" width="1" height="1" fill="#000" x="10" y="11"></rect>
    <rect opacity="1" width="1" height="1" fill="#000" x="10" y="12"></rect>
    <rect opacity="1" width="1" height="1" fill="#000" x="10" y="13"></rect>
    <rect opacity="1" width="1" height="1" fill="#000" x="10" y="15"></rect>
    <rect opacity="1" width="1" height="1" fill="#000" x="10" y="17"></rect>
    <rect opacity="1" width="1" height="1" fill="#000" x="10" y="18"></rect>
    <rect opacity="1" width="1" height="1" fill="#000" x="10" y="24"></rect>
    <rect opacity="1" width="1" height="1" fill="#000" x="10" y="25"></rect>
    <rect opacity="1" width="1" height="1" fill="#000" x="10" y="26"></rect>
    <rect opacity="1" width="1" height="1" fill="#000" x="11" y="1"></rect>
    <rect opacity="1" width="1" height="1" fill="#000" x="11" y="2"></rect>
    <rect opacity="1" width="1" height="1" fill="#000" x="11" y="4"></rect>
    <rect opacity="1" width="1" height="1" fill="#000" x="11" y="8"></rect>
    <rect opacity="1" width="1" height="1" fill="#000" x="11" y="9"></rect>
    <rect opacity="1" width="1" height="1" fill="#000" x="11" y="11"></rect>
    <rect opacity="1" width="1" height="1" fill="#000" x="11" y="12"></rect>
    <rect opacity="1" width="1" height="1" fill="#000" x="11" y="13"></rect>
    <rect opacity="1" width="1" height="1" fill="#000" x="11" y="14"></rect>
    <rect opacity="1" width="1" height="1" fill="#000" x="11" y="18"></rect>
    <rect opacity="1" width="1" height="1" fill="#000" x="11" y="21"></rect>
    <rect opacity="1" width="1" height="1" fill="#000" x="11" y="23"></rect>
    <rect opacity="1" width="1" height="1" fill="#000" x="11" y="24"></rect>
    <rect opacity="1" width="1" height="1" fill="#000" x="11" y="28"></rect>
    <rect opacity="1" width="1" height="1" fill="#000" x="12" y="2"></rect>
    <rect opacity="1" width="1" height="1" fill="#000" x="12" y="6"></rect>
    <rect opacity="1" width="1" height="1" fill="#000" x="12" y="9"></rect>
    <rect opacity="1" width="1" height="1" fill="#000" x="12" y="10"></rect>
    <rect opacity="1" width="1" height="1" fill="#000" x="12" y="12"></rect>
    <rect opacity="1" width="1" height="1" fill="#000" x="12" y="13"></rect>
    <rect opacity="1" width="1" height="1" fill="#000" x="12" y="16"></rect>
    <rect opacity="1" width="1" height="1" fill="#000" x="12" y="19"></rect>
    <rect opacity="1" width="1" height="1" fill="#000" x="12" y="21"></rect>
    <rect opacity="1" width="1" height="1" fill="#000" x="12" y="22"></rect>
    <rect opacity="1" width="1" height="1" fill="#000" x="12" y="28"></rect>
    <rect opacity="1" width="1" height="1" fill="#000" x="13" y="1"></rect>
    <rect opacity="1" width="1" height="1" fill="#000" x="13" y="2"></rect>
    <rect opacity="1" width="1" height="1" fill="#000" x="13" y="8"></rect>
    <rect opacity="1" width="1" height="1" fill="#000" x="13" y="11"></rect>
    <rect opacity="1" width="1" height="1" fill="#000" x="13" y="12"></rect>
    <rect opacity="1" width="1" height="1" fill="#000" x="13" y="16"></rect>
    <rect opacity="1" width="1" height="1" fill="#000" x="13" y="18"></rect>
    <rect opacity="1" width="1" height="1" fill="#000" x="13" y="20"></rect>
    <rect opacity="1" width="1" height="1" fill="#000" x="13" y="21"></rect>
    <rect opacity="1" width="1" height="1" fill="#000" x="13" y="22"></rect>
    <rect opacity="1" width="1" height="1" fill="#000" x="13" y="24"></rect>
    <rect opacity="1" width="1" height="1" fill="#000" x="13" y="26"></rect>
    <rect opacity="1" width="1" height="1" fill="#000" x="13" y="27"></rect>
    <rect opacity="1" width="1" height="1" fill="#000" x="13" y="28"></rect>
    <rect opacity="1" width="1" height="1" fill="#000" x="14" y="0"></rect>
    <rect opacity="1" width="1" height="1" fill="#000" x="14" y="4"></rect>
    <rect opacity="1" width="1" height="1" fill="#000" x="14" y="6"></rect>
    <rect opacity="1" width="1" height="1" fill="#000" x="14" y="9"></rect>
    <rect opacity="1" width="1" height="1" fill="#000" x="14" y="10"></rect>
    <rect opacity="1" width="1" height="1" fill="#000" x="14" y="11"></rect>
    <rect opacity="1" width="1" height="1" fill="#000" x="14" y="12"></rect>
    <rect opacity="1" width="1" height="1" fill="#000" x="14" y="14"></rect>
    <rect opacity="1" width="1" height="1" fill="#000" x="14" y="16"></rect>
    <rect opacity="1" width="1" height="1" fill="#000" x="14" y="18"></rect>
    <rect opacity="1" width="1" height="1" fill="#000" x="14" y="19"></rect>
    <rect opacity="1" width="1" height="1" fill="#000" x="14" y="23"></rect>
    <rect opacity="1" width="1" height="1" fill="#000" x="14" y="27"></rect>
    <rect opacity="1" width="1" height="1" fill="#000" x="14" y="28"></rect>
    <rect opacity="1" width="1" height="1" fill="#000" x="15" y="0"></rect>
    <rect opacity="1" width="1" height="1" fill="#000" x="15" y="1"></rect>
    <rect opacity="1" width="1" height="1" fill="#000" x="15" y="4"></rect>
    <rect opacity="1" width="1" height="1" fill="#000" x="15" y="5"></rect>
    <rect opacity="1" width="1" height="1" fill="#000" x="15" y="7"></rect>
    <rect opacity="1" width="1" height="1" fill="#000" x="15" y="9"></rect>
    <rect opacity="1" width="1" height="1" fill="#000" x="15" y="10"></rect>
    <rect opacity="1" width="1" height="1" fill="#000" x="15" y="13"></rect>
    <rect opacity="1" width="1" height="1" fill="#000" x="15" y="15"></rect>
    <rect opacity="1" width="1" height="1" fill="#000" x="15" y="25"></rect>
    <rect opacity="1" width="1" height="1" fill="#000" x="15" y="26"></rect>
    <rect opacity="1" width="1" height="1" fill="#000" x="15" y="27"></rect>
    <rect opacity="1" width="1" height="1" fill="#000" x="16" y="0"></rect>
    <rect opacity="1" width="1" height="1" fill="#000" x="16" y="4"></rect>
    <rect opacity="1" width="1" height="1" fill="#000" x="16" y="6"></rect>
    <rect opacity="1" width="1" height="1" fill="#000" x="16" y="7"></rect>
    <rect opacity="1" width="1" height="1" fill="#000" x="16" y="9"></rect>
    <rect opacity="1" width="1" height="1" fill="#000" x="16" y="10"></rect>
    <rect opacity="1" width="1" height="1" fill="#000" x="16" y="12"></rect>
    <rect opacity="1" width="1" height="1" fill="#000" x="16" y="13"></rect>
    <rect opacity="1" width="1" height="1" fill="#000" x="16" y="14"></rect>
    <rect opacity="1" width="1" height="1" fill="#000" x="16" y="15"></rect>
    <rect opacity="1" width="1" height="1" fill="#000" x="16" y="16"></rect>
    <rect opacity="1" width="1" height="1" fill="#000" x="16" y="17"></rect>
    <rect opacity="1" width="1" height="1" fill="#000" x="16" y="18"></rect>
    <rect opacity="1" width="1" height="1" fill="#000" x="16" y="20"></rect>
    <rect opacity="1" width="1" height="1" fill="#000" x="16" y="22"></rect>
    <rect opacity="1" width="1" height="1" fill="#000" x="16" y="23"></rect>
    <rect opacity="1" width="1" height="1" fill="#000" x="16" y="24"></rect>
    <rect opacity="1" width="1" height="1" fill="#000" x="17" y="0"></rect>
    <rect opacity="1" width="1" height="1" fill="#000" x="17" y="1"></rect>
    <rect opacity="1" width="1" height="1" fill="#000" x="17" y="3"></rect>
    <rect opacity="1" width="1" height="1" fill="#000" x="17" y="4"></rect>
    <rect opacity="1" width="1" height="1" fill="#000" x="17" y="5"></rect>
    <rect opacity="1" width="1" height="1" fill="#000" x="17" y="9"></rect>
    <rect opacity="1" width="1" height="1" fill="#000" x="17" y="11"></rect>
    <rect opacity="1" width="1" height="1" fill="#000" x="17" y="12"></rect>
    <rect opacity="1" width="1" height="1" fill="#000" x="17" y="13"></rect>
    <rect opacity="1" width="1" height="1" fill="#000" x="17" y="14"></rect>
    <rect opacity="1" width="1" height="1" fill="#000" x="17" y="15"></rect>
    <rect opacity="1" width="1" height="1" fill="#000" x="17" y="18"></rect>
    <rect opacity="1" width="1" height="1" fill="#000" x="17" y="20"></rect>
    <rect opacity="1" width="1" height="1" fill="#000" x="17" y="22"></rect>
    <rect opacity="1" width="1" height="1" fill="#000" x="17" y="25"></rect>
    <rect opacity="1" width="1" height="1" fill="#000" x="17" y="27"></rect>
    <rect opacity="1" width="1" height="1" fill="#000" x="18" y="0"></rect>
    <rect opacity="1" width="1" height="1" fill="#000" x="18" y="1"></rect>
    <rect opacity="1" width="1" height="1" fill="#000" x="18" y="3"></rect>
    <rect opacity="1" width="1" height="1" fill="#000" x="18" y="5"></rect>
    <rect opacity="1" width="1" height="1" fill="#000" x="18" y="6"></rect>
    <rect opacity="1" width="1" height="1" fill="#000" x="18" y="9"></rect>
    <rect opacity="1" width="1" height="1" fill="#000" x="18" y="12"></rect>
    <rect opacity="1" width="1" height="1" fill="#000" x="18" y="16"></rect>
    <rect opacity="1" width="1" height="1" fill="#000" x="18" y="20"></rect>
    <rect opacity="1" width="1" height="1" fill="#000" x="18" y="21"></rect>
    <rect opacity="1" width="1" height="1" fill="#000" x="18" y="23"></rect>
    <rect opacity="1" width="1" height="1" fill="#000" x="18" y="28"></rect>
    <rect opacity="1" width="1" height="1" fill="#000" x="19" y="0"></rect>
    <rect opacity="1" width="1" height="1" fill="#000" x="19" y="1"></rect>
    <rect opacity="1" width="1" height="1" fill="#000" x="19" y="2"></rect>
    <rect opacity="1" width="1" height="1" fill="#000" x="19" y="5"></rect>
    <rect opacity="1" width="1" height="1" fill="#000" x="19" y="9"></rect>
    <rect opacity="1" width="1" height="1" fill="#000" x="19" y="10"></rect>
    <rect opacity="1" width="1" height="1" fill="#000" x="19" y="11"></rect>
    <rect opacity="1" width="1" height="1" fill="#000" x="19" y="13"></rect>
    <rect opacity="1" width="1" height="1" fill="#000" x="19" y="14"></rect>
    <rect opacity="1" width="1" height="1" fill="#000" x="19" y="15"></rect>
    <rect opacity="1" width="1" height="1" fill="#000" x="19" y="16"></rect>
    <rect opacity="1" width="1" height="1" fill="#000" x="19" y="17"></rect>
    <rect opacity="1" width="1" height="1" fill="#000" x="19" y="21"></rect>
    <rect opacity="1" width="1" height="1" fill="#000" x="19" y="23"></rect>
    <rect opacity="1" width="1" height="1" fill="#000" x="19" y="25"></rect>
    <rect opacity="1" width="1" height="1" fill="#000" x="19" y="26"></rect>
    <rect opacity="1" width="1" height="1" fill="#000" x="20" y="0"></rect>
    <rect opacity="1" width="1" height="1" fill="#000" x="20" y="1"></rect>
    <rect opacity="1" width="1" height="1" fill="#000" x="20" y="3"></rect>
    <rect opacity="1" width="1" height="1" fill="#000" x="20" y="4"></rect>
    <rect opacity="1" width="1" height="1" fill="#000" x="20" y="6"></rect>
    <rect opacity="1" width="1" height="1" fill="#000" x="20" y="7"></rect>
    <rect opacity="1" width="1" height="1" fill="#000" x="20" y="8"></rect>
    <rect opacity="1" width="1" height="1" fill="#000" x="20" y="9"></rect>
    <rect opacity="1" width="1" height="1" fill="#000" x="20" y="10"></rect>
    <rect opacity="1" width="1" height="1" fill="#000" x="20" y="11"></rect>
    <rect opacity="1" width="1" height="1" fill="#000" x="20" y="12"></rect>
    <rect opacity="1" width="1" height="1" fill="#000" x="20" y="13"></rect>
    <rect opacity="1" width="1" height="1" fill="#000" x="20" y="16"></rect>
    <rect opacity="1" width="1" height="1" fill="#000" x="20" y="17"></rect>
    <rect opacity="1" width="1" height="1" fill="#000" x="20" y="18"></rect>
    <rect opacity="1" width="1" height="1" fill="#000" x="20" y="20"></rect>
    <rect opacity="1" width="1" height="1" fill="#000" x="20" y="21"></rect>
    <rect opacity="1" width="1" height="1" fill="#000" x="20" y="22"></rect>
    <rect opacity="1" width="1" height="1" fill="#000" x="20" y="23"></rect>
    <rect opacity="1" width="1" height="1" fill="#000" x="20" y="24"></rect>
    <rect opacity="1" width="1" height="1" fill="#000" x="20" y="26"></rect>
    <rect opacity="1" width="1" height="1" fill="#000" x="20" y="27"></rect>
    <rect opacity="1" width="1" height="1" fill="#000" x="20" y="28"></rect>
    <rect opacity="1" width="1" height="1" fill="#000" x="21" y="8"></rect>
    <rect opacity="1" width="1" height="1" fill="#000" x="21" y="11"></rect>
    <rect opacity="1" width="1" height="1" fill="#000" x="21" y="12"></rect>
    <rect opacity="1" width="1" height="1" fill="#000" x="21" y="13"></rect>
    <rect opacity="1" width="1" height="1" fill="#000" x="21" y="16"></rect>
    <rect opacity="1" width="1" height="1" fill="#000" x="21" y="18"></rect>
    <rect opacity="1" width="1" height="1" fill="#000" x="21" y="19"></rect>
    <rect opacity="1" width="1" height="1" fill="#000" x="21" y="20"></rect>
    <rect opacity="1" width="1" height="1" fill="#000" x="21" y="24"></rect>
    <rect opacity="1" width="1" height="1" fill="#000" x="21" y="25"></rect>
    <rect opacity="1" width="1" height="1" fill="#000" x="21" y="27"></rect>
    <rect width="1" height="1" fill="#000" x="22" y="0"></rect>
    <rect width="1" height="1" fill="#000" x="22" y="1"></rect>
    <rect width="1" height="1" fill="#000" x="22" y="2"></rect>
    <rect width="1" height="1" fill="#000" x="22" y="3"></rect>
    <rect width="1" height="1" fill="#000" x="22" y="4"></rect>
    <rect width="1" height="1" fill="#000" x="22" y="5"></rect>
    <rect width="1" height="1" fill="#000" x="22" y="6"></rect>
    <rect opacity="1" width="1" height="1" fill="#000" x="22" y="8"></rect>
    <rect opacity="1" width="1" height="1" fill="#000" x="22" y="11"></rect>
    <rect opacity="1" width="1" height="1" fill="#000" x="22" y="12"></rect>
    <rect opacity="1" width="1" height="1" fill="#000" x="22" y="13"></rect>
    <rect opacity="1" width="1" height="1" fill="#000" x="22" y="17"></rect>
    <rect opacity="1" width="1" height="1" fill="#000" x="22" y="19"></rect>
    <rect opacity="1" width="1" height="1" fill="#000" x="22" y="20"></rect>
    <rect opacity="1" width="1" height="1" fill="#000" x="22" y="22"></rect>
    <rect opacity="1" width="1" height="1" fill="#000" x="22" y="24"></rect>
    <rect opacity="1" width="1" height="1" fill="#000" x="22" y="26"></rect>
    <rect opacity="1" width="1" height="1" fill="#000" x="22" y="27"></rect>
    <rect width="1" height="1" fill="#000" x="23" y="0"></rect>
    <rect width="1" height="1" fill="#000" x="23" y="6"></rect>
    <rect opacity="1" width="1" height="1" fill="#000" x="23" y="9"></rect>
    <rect opacity="1" width="1" height="1" fill="#000" x="23" y="10"></rect>
    <rect opacity="1" width="1" height="1" fill="#000" x="23" y="11"></rect>
    <rect opacity="1" width="1" height="1" fill="#000" x="23" y="14"></rect>
    <rect opacity="1" width="1" height="1" fill="#000" x="23" y="16"></rect>
    <rect opacity="1" width="1" height="1" fill="#000" x="23" y="20"></rect>
    <rect opacity="1" width="1" height="1" fill="#000" x="23" y="24"></rect>
    <rect opacity="1" width="1" height="1" fill="#000" x="23" y="28"></rect>
    <rect width="1" height="1" fill="#000" x="24" y="0"></rect>
    <rect width="1" height="1" fill="#000" x="24" y="2"></rect>
    <rect width="1" height="1" fill="#000" x="24" y="3"></rect>
    <rect width="1" height="1" fill="#000" x="24" y="4"></rect>
    <rect width="1" height="1" fill="#000" x="24" y="6"></rect>
    <rect opacity="1" width="1" height="1" fill="#000" x="24" y="8"></rect>
    <rect opacity="1" width="1" height="1" fill="#000" x="24" y="9"></rect>
    <rect opacity="1" width="1" height="1" fill="#000" x="24" y="12"></rect>
    <rect opacity="1" width="1" height="1" fill="#000" x="24" y="15"></rect>
    <rect opacity="1" width="1" height="1" fill="#000" x="24" y="16"></rect>
    <rect opacity="1" width="1" height="1" fill="#000" x="24" y="17"></rect>
    <rect opacity="1" width="1" height="1" fill="#000" x="24" y="18"></rect>
    <rect opacity="1" width="1" height="1" fill="#000" x="24" y="19"></rect>
    <rect opacity="1" width="1" height="1" fill="#000" x="24" y="20"></rect>
    <rect opacity="1" width="1" height="1" fill="#000" x="24" y="21"></rect>
    <rect opacity="1" width="1" height="1" fill="#000" x="24" y="22"></rect>
    <rect opacity="1" width="1" height="1" fill="#000" x="24" y="23"></rect>
    <rect opacity="1" width="1" height="1" fill="#000" x="24" y="24"></rect>
    <rect opacity="1" width="1" height="1" fill="#000" x="24" y="27"></rect>
    <rect width="1" height="1" fill="#000" x="25" y="0"></rect>
    <rect width="1" height="1" fill="#000" x="25" y="2"></rect>
    <rect width="1" height="1" fill="#000" x="25" y="3"></rect>
    <rect width="1" height="1" fill="#000" x="25" y="4"></rect>
    <rect width="1" height="1" fill="#000" x="25" y="6"></rect>
    <rect opacity="1" width="1" height="1" fill="#000" x="25" y="8"></rect>
    <rect opacity="1" width="1" height="1" fill="#000" x="25" y="9"></rect>
    <rect opacity="1" width="1" height="1" fill="#000" x="25" y="10"></rect>
    <rect opacity="1" width="1" height="1" fill="#000" x="25" y="12"></rect>
    <rect opacity="1" width="1" height="1" fill="#000" x="25" y="13"></rect>
    <rect opacity="1" width="1" height="1" fill="#000" x="25" y="15"></rect>
    <rect opacity="1" width="1" height="1" fill="#000" x="25" y="16"></rect>
    <rect opacity="1" width="1" height="1" fill="#000" x="25" y="17"></rect>
    <rect opacity="1" width="1" height="1" fill="#000" x="25" y="18"></rect>
    <rect opacity="1" width="1" height="1" fill="#000" x="25" y="19"></rect>
    <rect opacity="1" width="1" height="1" fill="#000" x="25" y="25"></rect>
    <rect opacity="1" width="1" height="1" fill="#000" x="25" y="26"></rect>
    <rect opacity="1" width="1" height="1" fill="#000" x="25" y="27"></rect>
    <rect width="1" height="1" fill="#000" x="26" y="0"></rect>
    <rect width="1" height="1" fill="#000" x="26" y="2"></rect>
    <rect width="1" height="1" fill="#000" x="26" y="3"></rect>
    <rect width="1" height="1" fill="#000" x="26" y="4"></rect>
    <rect width="1" height="1" fill="#000" x="26" y="6"></rect>
    <rect opacity="1" width="1" height="1" fill="#000" x="26" y="9"></rect>
    <rect opacity="1" width="1" height="1" fill="#000" x="26" y="11"></rect>
    <rect opacity="1" width="1" height="1" fill="#000" x="26" y="13"></rect>
    <rect opacity="1" width="1" height="1" fill="#000" x="26" y="14"></rect>
    <rect opacity="1" width="1" height="1" fill="#000" x="26" y="15"></rect>
    <rect opacity="1" width="1" height="1" fill="#000" x="26" y="18"></rect>
    <rect opacity="1" width="1" height="1" fill="#000" x="26" y="19"></rect>
    <rect opacity="1" width="1" height="1" fill="#000" x="26" y="24"></rect>
    <rect opacity="1" width="1" height="1" fill="#000" x="26" y="25"></rect>
    <rect opacity="1" width="1" height="1" fill="#000" x="26" y="27"></rect>
    <rect opacity="1" width="1" height="1" fill="#000" x="26" y="28"></rect>
    <rect width="1" height="1" fill="#000" x="27" y="0"></rect>
    <rect width="1" height="1" fill="#000" x="27" y="6"></rect>
    <rect opacity="1" width="1" height="1" fill="#000" x="27" y="10"></rect>
    <rect opacity="1" width="1" height="1" fill="#000" x="27" y="11"></rect>
    <rect opacity="1" width="1" height="1" fill="#000" x="27" y="12"></rect>
    <rect opacity="1" width="1" height="1" fill="#000" x="27" y="15"></rect>
    <rect opacity="1" width="1" height="1" fill="#000" x="27" y="17"></rect>
    <rect opacity="1" width="1" height="1" fill="#000" x="27" y="18"></rect>
    <rect opacity="1" width="1" height="1" fill="#000" x="27" y="19"></rect>
    <rect opacity="1" width="1" height="1" fill="#000" x="27" y="20"></rect>
    <rect opacity="1" width="1" height="1" fill="#000" x="27" y="22"></rect>
    <rect opacity="1" width="1" height="1" fill="#000" x="27" y="26"></rect>
    <rect opacity="1" width="1" height="1" fill="#000" x="27" y="28"></rect>
    <rect width="1" height="1" fill="#000" x="28" y="0"></rect>
    <rect width="1" height="1" fill="#000" x="28" y="1"></rect>
    <rect width="1" height="1" fill="#000" x="28" y="2"></rect>
    <rect width="1" height="1" fill="#000" x="28" y="3"></rect>
    <rect width="1" height="1" fill="#000" x="28" y="4"></rect>
    <rect width="1" height="1" fill="#000" x="28" y="5"></rect>
    <rect width="1" height="1" fill="#000" x="28" y="6"></rect>
    <rect opacity="1" width="1" height="1" fill="#000" x="28" y="15"></rect>
    <rect opacity="1" width="1" height="1" fill="#000" x="28" y="20"></rect>
    <rect opacity="1" width="1" height="1" fill="#000" x="28" y="23"></rect>
    <rect opacity="1" width="1" height="1" fill="#000" x="28" y="26"></rect>
</svg>
